<svg xmlns="http://www.w3.org/2000/svg" width="64" height="64" fill="none"><path fill="#fff" d="M0 0h64v64H0z"/><path fill="#CC2229" fill-rule="evenodd" d="M23.118 14.994H35.04l2.982 2.926-22.726 22.43 2.981 2.925-5.714 5.61L3 39.986l22.477-21.943-2.359-3.049Zm11.674 16.214 5.836 6.095-14.032 13.895 2.856 3.05-5.589 5.85-9.313-8.9 20.242-19.99Z" clip-rule="evenodd"/><path fill="#CC2229" fill-rule="evenodd" d="M35.412 27.062h11.674L60 39.74 35.537 64l-8.94-2.073 21.73-22.308-12.915-12.557ZM24.465 10.711c.31-.948.6-1.561 1.09-2.51.148-.926.189-1.59-.569-2.338a3.816 3.816 0 0 1 .193-3.43c.608-.82 1.286-1.569 2.014-2.27.627-.352 1.041-.125.882.592l-1.268 2.682c-.179 1.036.155 2.018.815 2.51.496.418.788 1.655.06 2.655-.602.964-1.375 1.633-2.458 2.3-.437.11-.69.158-.76-.191Zm4.313 0c.31-.948.601-1.561 1.091-2.51.148-.926.19-1.59-.57-2.338a3.816 3.816 0 0 1 .193-3.43 18.23 18.23 0 0 1 2.015-2.27c.626-.352 1.04-.125.882.592L31.12 3.437c-.178 1.036.155 2.018.817 2.51.496.418.788 1.655.06 2.655-.602.964-1.375 1.633-2.459 2.3-.439.11-.692.158-.76-.191Zm4.314 0c.31-.948.601-1.561 1.09-2.51.149-.926.189-1.59-.569-2.338a3.82 3.82 0 0 1 .192-3.43A18.12 18.12 0 0 1 35.82.164c.625-.352 1.039-.125.88.592l-1.268 2.682c-.179 1.036.154 2.018.814 2.51.497.418.79 1.655.06 2.655-.6.964-1.374 1.633-2.458 2.3-.436.11-.688.158-.757-.191Z" clip-rule="evenodd"/></svg>